<svg height="412pt" viewBox="-38 0 412 412" width="412pt" xmlns="http://www.w3.org/2000/svg"><path d="m32 198.019531c.007812-7.726562 6.273438-13.988281 14-14h277.449219v-6c-.007813-7.726562-6.269531-13.988281-14-14h-283.449219c-7.726562.011719-13.992188 6.273438-14 14v207.980469c.007812 7.730469 6.269531 13.992188 14 14h6zm0 0" fill="#d4e1f4"/><path d="m124.597656 0c-39.023437.0429688-70.644531 31.667969-70.6875 70.691406v81.328125h-27.910156c-14.351562.015625-25.984375 11.648438-26 26v207.980469c.015625 14.351562 11.648438 25.984375 26 26h283.449219c14.355469-.015625 25.984375-11.648438 26-26v-207.980469c-.015625-14.351562-11.644531-25.984375-26-26h-27.910157v-81.328125c-.042968-39.023437-31.664062-70.6484372-70.6875-70.691406zm123.378906 152.019531h-160.503906v-81.328125c.023438-20.496094 16.628906-37.105468 37.125-37.128906h86.253906c20.496094.023438 37.105469 16.632812 37.125 37.128906zm-90.425781-130.457031v-9.5625h20.347657v9.5625zm-91.640625 49.128906c.035156-32.398437 26.289063-58.65625 58.6875-58.691406h20.953125v9.5625h-20.953125c-27.117187.03125-49.09375 22.007812-49.125 49.128906v81.328125h-9.5625zm257.539063 107.328125v207.980469c-.007813 7.726562-6.269531 13.992188-14 14h-283.449219c-7.726562-.007812-13.992188-6.273438-14-14v-207.980469c.007812-7.726562 6.273438-13.988281 14-14h283.449219c7.730469.011719 13.992187 6.273438 14 14zm-53.910157-107.328125v81.328125h-9.5625v-81.328125c-.03125-27.121094-22.003906-49.097656-49.125-49.128906h-20.953124v-9.5625h20.953124c32.398438.035156 58.652344 26.292969 58.6875 58.691406zm0 0" fill="#0635c9"/><g fill="#1ae5be"><path d="m109.605469 293.6875c6.449219 0 11.675781-5.230469 11.675781-11.675781 0-6.449219-5.226562-11.675781-11.675781-11.675781s-11.675781 5.226562-11.675781 11.675781c.007812 6.445312 5.230468 11.667969 11.675781 11.675781zm0-12c.179687 0 .324219.144531.324219.324219 0 .179687-.148438.324219-.324219.324219-.179688 0-.328125-.144532-.328125-.324219 0-.085938.035156-.167969.097656-.230469s.144531-.09375.230469-.09375zm0 0"/><path d="m237.523438 282.011719c0-6.449219-5.226563-11.675781-11.671876-11.675781-6.449218 0-11.675781 5.226562-11.675781 11.675781 0 6.445312 5.226563 11.675781 11.675781 11.675781 6.445313-.007812 11.667969-5.230469 11.671876-11.675781zm-12 0c0-.132813.082031-.253907.203124-.300781.121094-.050782.261719-.023438.355469.070312.09375.089844.121094.230469.070313.355469-.050782.121093-.171875.199219-.300782.199219-.179687 0-.328124-.144532-.328124-.324219zm0 0"/><path d="m51.484375 293.6875c6.449219 0 11.675781-5.226562 11.675781-11.675781s-5.226562-11.675781-11.675781-11.675781c-6.445313 0-11.675781 5.226562-11.675781 11.675781.007812 6.445312 5.230468 11.667969 11.675781 11.675781zm0-12c.179687 0 .324219.144531.324219.324219 0 .179687-.144532.324219-.324219.324219s-.324219-.144532-.324219-.324219c0-.179688.144532-.324219.324219-.324219zm0 0"/><path d="m283.964844 270.335938c-6.445313 0-11.675782 5.226562-11.675782 11.675781 0 6.445312 5.226563 11.675781 11.675782 11.675781 6.449218 0 11.675781-5.226562 11.675781-11.675781-.007813-6.445313-5.230469-11.667969-11.675781-11.675781zm0 12c-.179688 0-.324219-.144532-.324219-.324219 0-.179688.144531-.324219.324219-.324219.179687 0 .324218.144531.324218.324219 0 .179687-.144531.324219-.324218.324219zm0 0"/><path d="m142.726562 260.621094c3.3125 0 6-2.6875 6-6-.003906-5.277344 2.191407-10.316406 6.050782-13.910156 3.863281-3.59375 9.046875-5.421876 14.308594-5.042969 8.324218.59375 15.285156 6.550781 17.160156 14.683593 1.875 8.132813-1.777344 16.539063-9.003906 20.714844-9.679688 5.742188-15.585938 16.191406-15.515626 27.445313v10.851562c0 3.3125 2.683594 6 6 6 3.3125 0 6-2.6875 6-6v-10.851562c-.074218-6.980469 3.554688-13.472657 9.539063-17.066407 13.011719-7.535156 18.738281-23.328124 13.578125-37.453124-5.15625-14.125-19.707031-22.511719-34.515625-19.894532-14.808594 2.617188-25.601563 15.484375-25.601563 30.523438 0 3.3125 2.683594 6 6 6zm0 0"/><path d="m157.558594 330.234375c0 5.617187 4.550781 10.167969 10.164062 10.167969 5.617188 0 10.167969-4.550782 10.167969-10.164063 0-5.617187-4.550781-10.167969-10.164063-10.167969-5.613281.003907-10.160156 4.554688-10.167968 10.164063zm12 0c0 1.011719-.824219 1.832031-1.835938 1.832031-1.011718 0-1.832031-.820312-1.832031-1.835937 0-1.011719.824219-1.832031 1.835937-1.832031 1.011719.003906 1.832032.824218 1.832032 1.835937zm0 0"/></g></svg>